PathFileType	4	(X/Y/Z)	C:/Users/opensim2020/Desktop/walking_exp_matlab/subject02_walking11_straight_04.trc																																																																																																																												
DataRate	CameraRate	NumFrames	NumMarkers	Units	OrigDataRate	OrigDataStartFrame	OrigNumFrames																																																																																																																								
100	100	6	42	mm	100	3283	227																																																																																																																								
Frame#	Time	LFHD			RFHD			LBHD			RBHD			C7			T10			CLAV			STRN			RBAK			LSHO			LUPA			LELB			LFRM			LWRA			LWRB			LFIN			RSHO			RUPA			RELB			RFRM			RWRA			RWRB			RFIN			LASI			RASI			LPSI			RPSI			LTHI			LKNE			LTIB			LANK			LHEE			LTOE			RTHI			RKNE			RTIB			RANK			RHEE			RTOE			*39			*40			*41		
		X1	Y1	Z1	X2	Y2	Z2	X3	Y3	Z3	X4	Y4	Z4	X5	Y5	Z5	X6	Y6	Z6	X7	Y7	Z7	X8	Y8	Z8	X9	Y9	Z9	X10	Y10	Z10	X11	Y11	Z11	X12	Y12	Z12	X13	Y13	Z13	X14	Y14	Z14	X15	Y15	Z15	X16	Y16	Z16	X17	Y17	Z17	X18	Y18	Z18	X19	Y19	Z19	X20	Y20	Z20	X21	Y21	Z21	X22	Y22	Z22	X23	Y23	Z23	X24	Y24	Z24	X25	Y25	Z25	X26	Y26	Z26	X27	Y27	Z27	X28	Y28	Z28	X29	Y29	Z29	X30	Y30	Z30	X31	Y31	Z31	X32	Y32	Z32	X33	Y33	Z33	X34	Y34	Z34	X35	Y35	Z35	X36	Y36	Z36	X37	Y37	Z37	X38	Y38	Z38	X39	Y39	Z39	X40	Y40	Z40	X41	Y41	Z41	X42	Y42	Z42
																																																																																																																															
57	0.56	-362.82065	1738.53931	1002.00256	-365.68991	1713.98975	1144.37476	-489.68909	1658.11633	986.77197	-504.55554	1632.17932	1128.63672	-540.6947	1515.30042	1058.16406	-593.76892	1240.90247	1060.12793	-400.9277	1447.16479	1043.12024	-348.43951	1275.26086	1059.68774	-597.72687	1344.79785	1125.19202	-477.57214	1486.6001	875.90564	-516.7002	1289.04419	799.33661	-541.32025	1149.63916	794.59558	-551.93317	1018.27094	781.28528	-511.38272	885.61432	806.62372	-560.34656	894.50494	779.07257	-549.86584	828.03992	775.36932	-455.2756	1486.30542	1241.06482	-452.34079	1297.6875	1334.5874	-402.67136	1159.22803	1362.95264	-329.4834	1061.55823	1373.46338	-237.56471	966.71924	1344.70142	-274.86392	943.41705	1380.78894	-213.70636	905.21301	1378.93896	-346.97089	981.61877	940.43018	-376.15536	960.30011	1197.75061	-564.49707	1023.35571	999.63751	-581.66107	1025.98596	1112.02686	-333.55573	680.02869	871.5567	-295.58383	484.48056	911.41455	-292.89975	290.60614	913.9986	-219.23558	79.29667	946.13556	-243.05605	45.82658	1001.06036	-62.25066	74.34752	937.25232	-527.46545	668.92535	1234.15173	-580.95764	465.55307	1186.94482	-677.013	302.14871	1175.82983	-742.43127	120.58006	1129.09814	-778.33411	74.07381	1066.26196	-607.32977	40.13427	1165.0769	-469.65051	1795.59583	1092.14343	-2845.90063	1034.24121	3357.32642	NaN	NaN	NaN
58	0.57	-355.27133	1738.16284	1001.46973	-358.46243	1713.25293	1143.69019	-481.93597	1657.4093	985.47113	-496.96722	1630.92786	1127.48181	-532.46625	1514.11438	1056.49036	-584.45917	1239.47107	1058.177	-392.38748	1446.58923	1041.96631	-339.29898	1274.82556	1058.6991	-589.33832	1343.52747	1123.68494	-468.45303	1485.68115	874.46497	-506.50311	1287.81152	797.5788	-530.76978	1148.40674	793.00043	-540.75311	1016.7807	779.92273	-499.621	884.44159	805.64075	-548.2113	893.23798	777.71545	-537.34991	826.61066	774.26385	-447.75177	1485.48962	1239.80078	-445.23111	1296.53162	1332.76648	-396.11481	1157.68579	1360.53271	-323.7309	1059.65039	1371.61218	-232.66025	964.05054	1343.27393	-270.14896	940.98938	1379.07288	-209.32887	902.41089	1377.72168	-336.1763	981.61096	939.53552	-366.5032	959.74042	1196.60156	-553.98395	1022.28876	997.47882	-571.7431	1024.86169	1109.81812	-324.03448	678.85004	870.22107	-287.59302	482.86505	910.64063	-287.48886	288.82117	913.58563	-217.07127	76.33983	946.05231	-241.75827	43.18857	1001.17334	-60.20811	70.00387	937.79871	-520.15765	669.02185	1233.42358	-574.60962	465.84906	1187.0437	-673.01721	303.8757	1175.77588	-741.01514	123.13735	1129.48596	-777.41882	77.30911	1066.55322	-607.09668	40.23937	1165.41626	-462.57718	1794.3606	1091.27161	-2845.74805	1034.36499	3357.35693	NaN	NaN	NaN
59	0.58	-347.59824	1737.4939	1001.21326	-351.1319	1712.30237	1143.08728	-474.01059	1656.58191	984.38428	-489.35526	1629.58875	1126.13379	-524.15051	1512.83301	1054.69604	-575.08185	1237.94702	1056.07251	-383.79517	1445.91724	1040.72656	-330.01828	1274.33582	1057.66638	-580.70044	1341.84644	1121.14282	-459.29153	1484.71021	872.91772	-496.59195	1286.77332	795.68195	-519.9046	1147.1322	791.25513	-529.18292	1015.43719	778.29333	-487.68625	883.56909	804.59882	-536.18781	891.82959	776.20825	-524.94055	825.29376	772.92444	-440.30936	1484.37927	1238.29407	-438.16272	1295.46216	1331.25928	-389.62595	1156.26672	1358.35779	-318.07013	1057.63147	1369.91016	-227.5123	961.21967	1342.07019	-265.50281	938.56006	1377.73804	-205.16171	899.14929	1376.41333	-325.00192	981.44183	938.47058	-356.6806	959.17175	1195.40369	-543.12115	1021.12665	995.07349	-561.57428	1023.58887	1107.36121	-314.72659	677.5329	868.91827	-280.02573	480.94244	909.87671	-282.46759	286.80386	912.91272	-215.35995	73.18382	945.75592	-240.60405	40.30217	1000.6449	-58.43863	65.60402	938.21844	-512.50543	669.19373	1232.69263	-567.85876	466.23709	1187.28198	-668.76593	305.76572	1175.8042	-739.43445	125.85927	1129.90161	-776.28333	80.89809	1066.95667	-606.96893	40.26762	1165.77966	-455.33768	1793.48169	1091.23169	-2845.20239	1034.21606	3360.27515	NaN	NaN	NaN
60	0.59	-340.1283	1737.04272	1000.09589	-343.85135	1711.38599	1142.26233	-466.06744	1655.52612	983.01276	-481.68048	1628.20789	1124.69849	-515.89709	1511.46216	1052.87622	-565.57355	1236.24841	1053.64868	-375.2514	1445.17334	1039.55603	-320.77267	1273.87683	1056.60559	-571.44177	1340.00867	1118.94092	-449.871	1483.55933	871.43341	-485.53809	1285.26526	793.6084	-508.88739	1145.8363	788.89929	-517.55304	1014.23071	776.44568	-475.47443	882.42462	803.52411	-523.34943	890.50592	774.68298	-512.30371	824.07672	771.38196	-432.83713	1483.24524	1236.68298	-431.10049	1293.98389	1328.79492	-383.21796	1154.7533	1356.08936	-312.64148	1055.57434	1368.38098	-222.86729	957.95178	1340.61902	-261.13165	935.92053	1376.27271	-201.314	895.77826	1375.38208	-313.40677	981.237	937.53174	-346.98032	958.53864	1194.17896	-531.94049	1019.84106	992.3866	-551.13684	1022.18896	1104.578	-305.16501	675.93567	867.70306	-273.02005	478.69333	908.76855	-277.9314	284.43857	912.05524	-213.62543	69.6637	945.11072	-239.73018	37.8039	999.4256	-56.57459	60.82778	938.57544	-504.55115	669.36078	1232.05298	-560.73108	466.66183	1187.80908	-664.25537	307.74652	1175.87439	-737.60693	128.75308	1130.30298	-774.81042	84.48759	1067.27393	-606.82843	40.04181	1166.06641	-448.25159	1792.30896	1089.84265	-2845.15405	1034.27271	3360.23926	NaN	NaN	NaN
61	0.6	-332.53528	1736.41785	999.16064	-336.61359	1710.52795	1141.12988	-458.02295	1654.42297	981.65192	-474.01477	1626.77759	1123.20691	-507.65875	1510.02173	1050.9259	-555.95447	1234.4364	1051.03101	-366.53696	1444.34436	1038.13062	-311.27222	1273.34692	1055.34619	-563.26086	1338.12329	1116.23914	-440.6048	1482.60632	869.64874	-475.44589	1284.11255	791.7063	-497.68335	1144.42334	786.78473	-505.2146	1012.68372	774.36395	-463.00992	881.2973	802.16235	-510.75583	888.84839	773.02466	-499.17685	822.55542	769.97314	-425.40195	1481.97839	1235.09607	-424.10684	1292.58862	1326.74902	-376.94083	1153.09546	1353.75916	-307.45157	1053.32239	1366.80896	-218.17824	955.01813	1339.54309	-256.98068	933.15015	1374.86731	-197.63306	892.10248	1373.83179	-301.49002	980.89026	936.46118	-336.44376	958.08124	1193.15808	-520.5506	1018.44171	989.492	-540.50342	1020.65796	1101.52588	-295.52164	674.23596	866.51752	-266.89694	476.2627	907.32178	-273.65155	281.84482	911.54919	-210.88892	67.59808	945.50201	-237.53142	39.0074	1000.40356	-53.16216	52.80951	937.71625	-496.21591	669.49304	1231.396	-553.23047	467.05289	1188.20007	-659.4823	309.8613	1176.09949	-735.78912	132.11255	1130.91919	-773.17194	88.64634	1067.95825	-606.62531	40.06844	1166.48328	-441.12167	1790.98828	1088.66125	-2845.97729	1034.26074	3357.25415	NaN	NaN	NaN
62	0.61	-324.50406	1736.14844	998.10034	-329.20056	1709.87085	1139.98376	-449.93854	1653.49524	980.00171	-466.159	1625.47681	1121.51135	-499.50195	1508.64905	1048.86816	-546.21973	1232.95911	1048.02722	-357.79382	1443.6145	1036.61365	-301.83411	1273.08057	1054.14722	-553.75806	1336.56543	1113.15991	-431.18533	1481.58655	867.80988	-464.89517	1282.90479	789.55853	-486.4339	1142.99146	784.62689	-493.29642	1011.19513	772.71539	-450.39105	879.8064	801.11377	-498.01981	887.47607	771.32806	-486.12366	821.31403	768.32727	-418.0303	1480.68262	1233.36597	-417.19943	1291.03076	1324.56262	-370.76865	1151.46997	1351.65991	-302.11163	1051.05127	1364.52295	-213.9178	951.35065	1338.11462	-253.06451	930.28748	1373.44116	-194.24811	888.27405	1372.52649	-289.56781	980.43848	935.45276	-325.89819	957.51068	1192.01392	-508.95157	1016.98694	986.30621	-529.89471	1018.9859	1098.24011	-286.35535	672.81116	865.16895	-261.76288	474.42285	905.52533	-268.71118	279.56827	911.63873	-205.98645	68.26216	945.1275	-233.78362	41.00216	999.44196	-47.4973	45.89193	935.72113	-487.58923	669.54321	1230.71216	-545.13251	467.31808	1188.58362	-654.28949	312.14093	1176.37341	-733.59912	135.62991	1131.67407	-771.50098	93.15055	1068.60767	-606.42218	40.13741	1166.89587	-433.95465	1789.85583	1087.35339	-2845.97095	1034.43457	3357.59644	NaN	NaN	NaN
